<mxfile host="app.diagrams.net" agent="Mozilla/5.0 (Windows NT 10.0; Win64; x64) AppleWebKit/537.36 (KHTML, like Gecko) Chrome/126.0.0.0 Safari/537.36 OPR/112.0.0.0" version="24.7.16">
  <diagram name="Страница — 1" id="MqbAulWfbvrvXV6YweHp">
    <mxGraphModel dx="519" dy="324" grid="1" gridSize="10" guides="1" tooltips="1" connect="1" arrows="1" fold="1" page="1" pageScale="1" pageWidth="1654" pageHeight="1169" math="0" shadow="0">
      <root>
        <mxCell id="0" />
        <mxCell id="1" parent="0" />
        <mxCell id="S25LZX2bHJUGCXqfITIe-69" value="" style="endArrow=none;html=1;rounded=0;entryX=0.5;entryY=1;entryDx=0;entryDy=0;exitX=0.5;exitY=0;exitDx=0;exitDy=0;edgeStyle=orthogonalEdgeStyle;curved=1;" edge="1" parent="1" source="S25LZX2bHJUGCXqfITIe-44" target="S25LZX2bHJUGCXqfITIe-4">
          <mxGeometry width="50" height="50" relative="1" as="geometry">
            <mxPoint x="880" y="670" as="sourcePoint" />
            <mxPoint x="930" y="620" as="targetPoint" />
          </mxGeometry>
        </mxCell>
        <mxCell id="S25LZX2bHJUGCXqfITIe-67" value="" style="fontSize=12;html=1;endArrow=ERmandOne;startArrow=ERmandOne;rounded=0;exitX=0.5;exitY=0;exitDx=0;exitDy=0;entryX=0.5;entryY=1;entryDx=0;entryDy=0;" edge="1" parent="1" source="S25LZX2bHJUGCXqfITIe-4" target="S25LZX2bHJUGCXqfITIe-3">
          <mxGeometry width="100" height="100" relative="1" as="geometry">
            <mxPoint x="921" y="545" as="sourcePoint" />
            <mxPoint x="921" y="345" as="targetPoint" />
          </mxGeometry>
        </mxCell>
        <mxCell id="S25LZX2bHJUGCXqfITIe-61" value="" style="edgeStyle=entityRelationEdgeStyle;fontSize=12;html=1;endArrow=ERoneToMany;startArrow=ERoneToMany;rounded=0;exitX=1;exitY=0.5;exitDx=0;exitDy=0;entryX=0;entryY=0.5;entryDx=0;entryDy=0;" edge="1" parent="1" source="S25LZX2bHJUGCXqfITIe-3" target="S25LZX2bHJUGCXqfITIe-2">
          <mxGeometry width="100" height="100" relative="1" as="geometry">
            <mxPoint x="1050" y="350" as="sourcePoint" />
            <mxPoint x="1150" y="250" as="targetPoint" />
          </mxGeometry>
        </mxCell>
        <mxCell id="S25LZX2bHJUGCXqfITIe-50" value="" style="endArrow=none;html=1;rounded=0;entryX=0.5;entryY=1;entryDx=0;entryDy=0;exitX=0.5;exitY=0;exitDx=0;exitDy=0;edgeStyle=orthogonalEdgeStyle;curved=1;" edge="1" parent="1" source="S25LZX2bHJUGCXqfITIe-3" target="S25LZX2bHJUGCXqfITIe-35">
          <mxGeometry width="50" height="50" relative="1" as="geometry">
            <mxPoint x="940" y="240" as="sourcePoint" />
            <mxPoint x="990" y="190" as="targetPoint" />
            <Array as="points">
              <mxPoint x="930" y="220" />
              <mxPoint x="890" y="220" />
              <mxPoint x="890" y="160" />
            </Array>
          </mxGeometry>
        </mxCell>
        <mxCell id="S25LZX2bHJUGCXqfITIe-49" value="" style="endArrow=none;html=1;rounded=0;exitX=0.25;exitY=0;exitDx=0;exitDy=0;entryX=0.5;entryY=1;entryDx=0;entryDy=0;edgeStyle=orthogonalEdgeStyle;curved=1;" edge="1" parent="1" source="S25LZX2bHJUGCXqfITIe-3" target="S25LZX2bHJUGCXqfITIe-37">
          <mxGeometry width="50" height="50" relative="1" as="geometry">
            <mxPoint x="870" y="360" as="sourcePoint" />
            <mxPoint x="870" y="240" as="targetPoint" />
          </mxGeometry>
        </mxCell>
        <mxCell id="S25LZX2bHJUGCXqfITIe-1" value="" style="rounded=1;whiteSpace=wrap;html=1;" vertex="1" parent="1">
          <mxGeometry x="550" y="280" width="120" height="60" as="geometry" />
        </mxCell>
        <mxCell id="S25LZX2bHJUGCXqfITIe-2" value="" style="rounded=1;whiteSpace=wrap;html=1;" vertex="1" parent="1">
          <mxGeometry x="1190" y="280" width="120" height="60" as="geometry" />
        </mxCell>
        <mxCell id="S25LZX2bHJUGCXqfITIe-3" value="" style="rounded=1;whiteSpace=wrap;html=1;" vertex="1" parent="1">
          <mxGeometry x="870" y="280" width="120" height="60" as="geometry" />
        </mxCell>
        <mxCell id="S25LZX2bHJUGCXqfITIe-4" value="" style="rounded=1;whiteSpace=wrap;html=1;" vertex="1" parent="1">
          <mxGeometry x="870" y="540" width="120" height="60" as="geometry" />
        </mxCell>
        <mxCell id="S25LZX2bHJUGCXqfITIe-5" value="Customer" style="text;html=1;align=center;verticalAlign=middle;whiteSpace=wrap;rounded=0;" vertex="1" parent="1">
          <mxGeometry x="580" y="295" width="60" height="30" as="geometry" />
        </mxCell>
        <mxCell id="S25LZX2bHJUGCXqfITIe-6" value="Order" style="text;html=1;align=center;verticalAlign=middle;whiteSpace=wrap;rounded=0;" vertex="1" parent="1">
          <mxGeometry x="900" y="295" width="60" height="30" as="geometry" />
        </mxCell>
        <mxCell id="S25LZX2bHJUGCXqfITIe-7" value="Product" style="text;html=1;align=center;verticalAlign=middle;whiteSpace=wrap;rounded=0;" vertex="1" parent="1">
          <mxGeometry x="1220" y="295" width="60" height="30" as="geometry" />
        </mxCell>
        <mxCell id="S25LZX2bHJUGCXqfITIe-8" value="Delivery" style="text;html=1;align=center;verticalAlign=middle;whiteSpace=wrap;rounded=0;" vertex="1" parent="1">
          <mxGeometry x="900" y="555" width="60" height="30" as="geometry" />
        </mxCell>
        <mxCell id="S25LZX2bHJUGCXqfITIe-9" value="" style="rhombus;whiteSpace=wrap;html=1;" vertex="1" parent="1">
          <mxGeometry x="1030" y="275" width="100" height="70" as="geometry" />
        </mxCell>
        <mxCell id="S25LZX2bHJUGCXqfITIe-10" value="" style="rhombus;whiteSpace=wrap;html=1;" vertex="1" parent="1">
          <mxGeometry x="880" y="400" width="100" height="70" as="geometry" />
        </mxCell>
        <mxCell id="S25LZX2bHJUGCXqfITIe-12" value="contains" style="text;html=1;align=center;verticalAlign=middle;whiteSpace=wrap;rounded=0;" vertex="1" parent="1">
          <mxGeometry x="1050" y="295" width="60" height="30" as="geometry" />
        </mxCell>
        <mxCell id="S25LZX2bHJUGCXqfITIe-14" value="has" style="text;html=1;align=center;verticalAlign=middle;whiteSpace=wrap;rounded=0;" vertex="1" parent="1">
          <mxGeometry x="900" y="420" width="60" height="30" as="geometry" />
        </mxCell>
        <mxCell id="S25LZX2bHJUGCXqfITIe-15" value="" style="ellipse;whiteSpace=wrap;html=1;" vertex="1" parent="1">
          <mxGeometry x="500" y="180" width="80" height="40" as="geometry" />
        </mxCell>
        <mxCell id="S25LZX2bHJUGCXqfITIe-16" value="" style="ellipse;whiteSpace=wrap;html=1;" vertex="1" parent="1">
          <mxGeometry x="660" y="215" width="80" height="40" as="geometry" />
        </mxCell>
        <mxCell id="S25LZX2bHJUGCXqfITIe-17" value="" style="ellipse;whiteSpace=wrap;html=1;" vertex="1" parent="1">
          <mxGeometry x="600" y="175" width="80" height="40" as="geometry" />
        </mxCell>
        <mxCell id="S25LZX2bHJUGCXqfITIe-18" value="" style="ellipse;whiteSpace=wrap;html=1;" vertex="1" parent="1">
          <mxGeometry x="430" y="235" width="80" height="40" as="geometry" />
        </mxCell>
        <mxCell id="S25LZX2bHJUGCXqfITIe-19" value="&lt;h1 style=&quot;margin-top: 0px;&quot;&gt;БД &quot;Система управління замовленнями та доставкою косметики&quot;&lt;/h1&gt;&lt;div style=&quot;font-size: 14px;&quot;&gt;&lt;font style=&quot;font-size: 14px;&quot;&gt;Сутності:&lt;/font&gt;&lt;br&gt;&lt;ol style=&quot;line-height: 170%;&quot;&gt;&lt;li style=&quot;text-align: justify;&quot;&gt;Клієнт (Customer)&lt;/li&gt;&lt;li style=&quot;text-align: justify;&quot;&gt;Замовлення (Order)&lt;/li&gt;&lt;li style=&quot;text-align: justify;&quot;&gt;Продукт (Product)&lt;/li&gt;&lt;li style=&quot;text-align: justify;&quot;&gt;Доставка (Delivery)&lt;/li&gt;&lt;/ol&gt;&lt;/div&gt;" style="text;html=1;whiteSpace=wrap;overflow=hidden;rounded=0;" vertex="1" parent="1">
          <mxGeometry x="30" y="25" width="480" height="210" as="geometry" />
        </mxCell>
        <mxCell id="S25LZX2bHJUGCXqfITIe-21" value="&lt;u&gt;CustomerID&lt;/u&gt;" style="text;html=1;align=center;verticalAlign=middle;whiteSpace=wrap;rounded=0;" vertex="1" parent="1">
          <mxGeometry x="440" y="240" width="60" height="30" as="geometry" />
        </mxCell>
        <mxCell id="S25LZX2bHJUGCXqfITIe-22" value="Name" style="text;html=1;align=center;verticalAlign=middle;whiteSpace=wrap;rounded=0;" vertex="1" parent="1">
          <mxGeometry x="610" y="180" width="60" height="30" as="geometry" />
        </mxCell>
        <mxCell id="S25LZX2bHJUGCXqfITIe-23" value="Email" style="text;html=1;align=center;verticalAlign=middle;whiteSpace=wrap;rounded=0;" vertex="1" parent="1">
          <mxGeometry x="510" y="185" width="60" height="30" as="geometry" />
        </mxCell>
        <mxCell id="S25LZX2bHJUGCXqfITIe-24" value="Phone" style="text;html=1;align=center;verticalAlign=middle;whiteSpace=wrap;rounded=0;" vertex="1" parent="1">
          <mxGeometry x="670" y="220" width="60" height="30" as="geometry" />
        </mxCell>
        <mxCell id="S25LZX2bHJUGCXqfITIe-25" value="" style="ellipse;whiteSpace=wrap;html=1;" vertex="1" parent="1">
          <mxGeometry x="920" y="160" width="80" height="40" as="geometry" />
        </mxCell>
        <mxCell id="S25LZX2bHJUGCXqfITIe-26" value="" style="ellipse;whiteSpace=wrap;html=1;" vertex="1" parent="1">
          <mxGeometry x="806" y="195" width="80" height="40" as="geometry" />
        </mxCell>
        <mxCell id="S25LZX2bHJUGCXqfITIe-27" value="" style="ellipse;whiteSpace=wrap;html=1;" vertex="1" parent="1">
          <mxGeometry x="827" y="125" width="80" height="40" as="geometry" />
        </mxCell>
        <mxCell id="S25LZX2bHJUGCXqfITIe-28" value="" style="ellipse;whiteSpace=wrap;html=1;" vertex="1" parent="1">
          <mxGeometry x="1270" y="190" width="80" height="40" as="geometry" />
        </mxCell>
        <mxCell id="S25LZX2bHJUGCXqfITIe-29" value="" style="ellipse;whiteSpace=wrap;html=1;" vertex="1" parent="1">
          <mxGeometry x="1150" y="205" width="80" height="40" as="geometry" />
        </mxCell>
        <mxCell id="S25LZX2bHJUGCXqfITIe-30" value="" style="ellipse;whiteSpace=wrap;html=1;" vertex="1" parent="1">
          <mxGeometry x="1210" y="125" width="80" height="40" as="geometry" />
        </mxCell>
        <mxCell id="S25LZX2bHJUGCXqfITIe-31" value="" style="ellipse;whiteSpace=wrap;html=1;" vertex="1" parent="1">
          <mxGeometry x="910" y="650" width="80" height="40" as="geometry" />
        </mxCell>
        <mxCell id="S25LZX2bHJUGCXqfITIe-32" value="" style="ellipse;whiteSpace=wrap;html=1;" vertex="1" parent="1">
          <mxGeometry x="1020" y="650" width="80" height="40" as="geometry" />
        </mxCell>
        <mxCell id="S25LZX2bHJUGCXqfITIe-33" value="" style="ellipse;whiteSpace=wrap;html=1;" vertex="1" parent="1">
          <mxGeometry x="790" y="640" width="80" height="40" as="geometry" />
        </mxCell>
        <mxCell id="S25LZX2bHJUGCXqfITIe-35" value="&lt;u&gt;OrderID&lt;/u&gt;" style="text;html=1;align=center;verticalAlign=middle;whiteSpace=wrap;rounded=0;" vertex="1" parent="1">
          <mxGeometry x="837" y="130" width="60" height="30" as="geometry" />
        </mxCell>
        <mxCell id="S25LZX2bHJUGCXqfITIe-36" value="Date" style="text;html=1;align=center;verticalAlign=middle;whiteSpace=wrap;rounded=0;" vertex="1" parent="1">
          <mxGeometry x="930" y="165" width="60" height="30" as="geometry" />
        </mxCell>
        <mxCell id="S25LZX2bHJUGCXqfITIe-37" value="TotalAmount" style="text;html=1;align=center;verticalAlign=middle;whiteSpace=wrap;rounded=0;" vertex="1" parent="1">
          <mxGeometry x="816" y="200" width="60" height="30" as="geometry" />
        </mxCell>
        <mxCell id="S25LZX2bHJUGCXqfITIe-38" value="Name" style="text;html=1;align=center;verticalAlign=middle;whiteSpace=wrap;rounded=0;" vertex="1" parent="1">
          <mxGeometry x="1160" y="210" width="60" height="30" as="geometry" />
        </mxCell>
        <mxCell id="S25LZX2bHJUGCXqfITIe-39" value="&lt;u&gt;ProductID&lt;/u&gt;" style="text;html=1;align=center;verticalAlign=middle;whiteSpace=wrap;rounded=0;" vertex="1" parent="1">
          <mxGeometry x="1220" y="130" width="60" height="30" as="geometry" />
        </mxCell>
        <mxCell id="S25LZX2bHJUGCXqfITIe-40" value="Price" style="text;html=1;align=center;verticalAlign=middle;whiteSpace=wrap;rounded=0;" vertex="1" parent="1">
          <mxGeometry x="1280" y="195" width="60" height="30" as="geometry" />
        </mxCell>
        <mxCell id="S25LZX2bHJUGCXqfITIe-41" value="&lt;u&gt;DeliveryID&lt;/u&gt;" style="text;html=1;align=center;verticalAlign=middle;whiteSpace=wrap;rounded=0;" vertex="1" parent="1">
          <mxGeometry x="800" y="645" width="60" height="30" as="geometry" />
        </mxCell>
        <mxCell id="S25LZX2bHJUGCXqfITIe-44" value="Adress" style="text;html=1;align=center;verticalAlign=middle;whiteSpace=wrap;rounded=0;" vertex="1" parent="1">
          <mxGeometry x="920" y="655" width="60" height="30" as="geometry" />
        </mxCell>
        <mxCell id="S25LZX2bHJUGCXqfITIe-45" value="Status" style="text;html=1;align=center;verticalAlign=middle;whiteSpace=wrap;rounded=0;" vertex="1" parent="1">
          <mxGeometry x="1030" y="655" width="60" height="30" as="geometry" />
        </mxCell>
        <mxCell id="S25LZX2bHJUGCXqfITIe-46" value="" style="edgeStyle=entityRelationEdgeStyle;fontSize=12;html=1;endArrow=ERoneToMany;rounded=0;entryX=0;entryY=0.5;entryDx=0;entryDy=0;exitX=1;exitY=0.5;exitDx=0;exitDy=0;" edge="1" parent="1" source="S25LZX2bHJUGCXqfITIe-1" target="S25LZX2bHJUGCXqfITIe-3">
          <mxGeometry width="100" height="100" relative="1" as="geometry">
            <mxPoint x="720" y="420" as="sourcePoint" />
            <mxPoint x="670" y="310" as="targetPoint" />
            <Array as="points">
              <mxPoint x="810" y="380" />
              <mxPoint x="870" y="310" />
            </Array>
          </mxGeometry>
        </mxCell>
        <mxCell id="S25LZX2bHJUGCXqfITIe-11" value="" style="rhombus;whiteSpace=wrap;html=1;" vertex="1" parent="1">
          <mxGeometry x="720" y="275" width="100" height="70" as="geometry" />
        </mxCell>
        <mxCell id="S25LZX2bHJUGCXqfITIe-13" value="places" style="text;html=1;align=center;verticalAlign=middle;whiteSpace=wrap;rounded=0;" vertex="1" parent="1">
          <mxGeometry x="740" y="295" width="60" height="30" as="geometry" />
        </mxCell>
        <mxCell id="S25LZX2bHJUGCXqfITIe-52" value="" style="endArrow=none;html=1;rounded=0;exitX=0.75;exitY=0;exitDx=0;exitDy=0;entryX=0.5;entryY=1;entryDx=0;entryDy=0;edgeStyle=orthogonalEdgeStyle;curved=1;" edge="1" parent="1" source="S25LZX2bHJUGCXqfITIe-3" target="S25LZX2bHJUGCXqfITIe-25">
          <mxGeometry width="50" height="50" relative="1" as="geometry">
            <mxPoint x="930" y="250" as="sourcePoint" />
            <mxPoint x="980" y="200" as="targetPoint" />
            <Array as="points">
              <mxPoint x="970" y="280" />
              <mxPoint x="970" y="200" />
            </Array>
          </mxGeometry>
        </mxCell>
        <mxCell id="S25LZX2bHJUGCXqfITIe-54" value="" style="endArrow=none;html=1;rounded=0;entryX=0.5;entryY=1;entryDx=0;entryDy=0;exitX=0;exitY=0.5;exitDx=0;exitDy=0;edgeStyle=orthogonalEdgeStyle;curved=1;" edge="1" parent="1" source="S25LZX2bHJUGCXqfITIe-1" target="S25LZX2bHJUGCXqfITIe-18">
          <mxGeometry width="50" height="50" relative="1" as="geometry">
            <mxPoint x="600" y="270" as="sourcePoint" />
            <mxPoint x="650" y="220" as="targetPoint" />
            <Array as="points">
              <mxPoint x="550" y="300" />
              <mxPoint x="470" y="300" />
            </Array>
          </mxGeometry>
        </mxCell>
        <mxCell id="S25LZX2bHJUGCXqfITIe-57" value="" style="endArrow=none;html=1;rounded=0;entryX=0.5;entryY=1;entryDx=0;entryDy=0;exitX=0.25;exitY=0;exitDx=0;exitDy=0;edgeStyle=orthogonalEdgeStyle;curved=1;" edge="1" parent="1" source="S25LZX2bHJUGCXqfITIe-1" target="S25LZX2bHJUGCXqfITIe-15">
          <mxGeometry width="50" height="50" relative="1" as="geometry">
            <mxPoint x="600" y="270" as="sourcePoint" />
            <mxPoint x="650" y="220" as="targetPoint" />
          </mxGeometry>
        </mxCell>
        <mxCell id="S25LZX2bHJUGCXqfITIe-58" value="" style="endArrow=none;html=1;rounded=0;entryX=0.5;entryY=1;entryDx=0;entryDy=0;exitX=0.5;exitY=0;exitDx=0;exitDy=0;edgeStyle=orthogonalEdgeStyle;curved=1;" edge="1" parent="1" source="S25LZX2bHJUGCXqfITIe-1" target="S25LZX2bHJUGCXqfITIe-17">
          <mxGeometry width="50" height="50" relative="1" as="geometry">
            <mxPoint x="600" y="270" as="sourcePoint" />
            <mxPoint x="650" y="220" as="targetPoint" />
          </mxGeometry>
        </mxCell>
        <mxCell id="S25LZX2bHJUGCXqfITIe-59" value="" style="endArrow=none;html=1;rounded=0;entryX=0.5;entryY=1;entryDx=0;entryDy=0;exitX=0.75;exitY=0;exitDx=0;exitDy=0;edgeStyle=orthogonalEdgeStyle;curved=1;" edge="1" parent="1" source="S25LZX2bHJUGCXqfITIe-1" target="S25LZX2bHJUGCXqfITIe-16">
          <mxGeometry width="50" height="50" relative="1" as="geometry">
            <mxPoint x="600" y="270" as="sourcePoint" />
            <mxPoint x="650" y="220" as="targetPoint" />
          </mxGeometry>
        </mxCell>
        <mxCell id="S25LZX2bHJUGCXqfITIe-64" value="" style="endArrow=none;html=1;rounded=0;entryX=0.5;entryY=1;entryDx=0;entryDy=0;exitX=0.25;exitY=0;exitDx=0;exitDy=0;edgeStyle=orthogonalEdgeStyle;curved=1;" edge="1" parent="1" source="S25LZX2bHJUGCXqfITIe-2" target="S25LZX2bHJUGCXqfITIe-29">
          <mxGeometry width="50" height="50" relative="1" as="geometry">
            <mxPoint x="1160" y="300" as="sourcePoint" />
            <mxPoint x="1210" y="250" as="targetPoint" />
          </mxGeometry>
        </mxCell>
        <mxCell id="S25LZX2bHJUGCXqfITIe-65" value="" style="endArrow=none;html=1;rounded=0;entryX=0.5;entryY=1;entryDx=0;entryDy=0;edgeStyle=orthogonalEdgeStyle;curved=1;" edge="1" parent="1" source="S25LZX2bHJUGCXqfITIe-2" target="S25LZX2bHJUGCXqfITIe-30">
          <mxGeometry width="50" height="50" relative="1" as="geometry">
            <mxPoint x="1290" y="210" as="sourcePoint" />
            <mxPoint x="1340" y="160" as="targetPoint" />
            <Array as="points">
              <mxPoint x="1260" y="165" />
            </Array>
          </mxGeometry>
        </mxCell>
        <mxCell id="S25LZX2bHJUGCXqfITIe-66" value="" style="endArrow=none;html=1;rounded=0;exitX=0.75;exitY=0;exitDx=0;exitDy=0;entryX=0.5;entryY=1;entryDx=0;entryDy=0;edgeStyle=orthogonalEdgeStyle;curved=1;" edge="1" parent="1" source="S25LZX2bHJUGCXqfITIe-2" target="S25LZX2bHJUGCXqfITIe-28">
          <mxGeometry width="50" height="50" relative="1" as="geometry">
            <mxPoint x="1290" y="210" as="sourcePoint" />
            <mxPoint x="1340" y="160" as="targetPoint" />
          </mxGeometry>
        </mxCell>
        <mxCell id="S25LZX2bHJUGCXqfITIe-68" value="" style="endArrow=none;html=1;rounded=0;entryX=0.25;entryY=1;entryDx=0;entryDy=0;exitX=0.5;exitY=0;exitDx=0;exitDy=0;edgeStyle=orthogonalEdgeStyle;curved=1;" edge="1" parent="1" source="S25LZX2bHJUGCXqfITIe-33" target="S25LZX2bHJUGCXqfITIe-4">
          <mxGeometry width="50" height="50" relative="1" as="geometry">
            <mxPoint x="880" y="670" as="sourcePoint" />
            <mxPoint x="930" y="620" as="targetPoint" />
          </mxGeometry>
        </mxCell>
        <mxCell id="S25LZX2bHJUGCXqfITIe-70" value="" style="endArrow=none;html=1;rounded=0;entryX=0.75;entryY=1;entryDx=0;entryDy=0;exitX=0.5;exitY=0;exitDx=0;exitDy=0;edgeStyle=orthogonalEdgeStyle;curved=1;" edge="1" parent="1" source="S25LZX2bHJUGCXqfITIe-32" target="S25LZX2bHJUGCXqfITIe-4">
          <mxGeometry width="50" height="50" relative="1" as="geometry">
            <mxPoint x="880" y="670" as="sourcePoint" />
            <mxPoint x="930" y="620" as="targetPoint" />
          </mxGeometry>
        </mxCell>
      </root>
    </mxGraphModel>
  </diagram>
</mxfile>
